<svg xmlns="http://www.w3.org/2000/svg" width="400" height="300" fill="none"><rect width="400" height="300" fill="url(#a)" rx="12"/><rect width="400" height="40" fill="url(#b)" rx="12"/><path fill="rgba(139, 92, 246, 0.1)" d="M0 28h400v12H0z"/><circle cx="20" cy="20" r="6" fill="#ff5f57"/><circle cx="40" cy="20" r="6" fill="#ffbd2e"/><circle cx="60" cy="20" r="6" fill="#28ca42"/><text x="200" y="26" fill="#fff" font-family="Inter, sans-serif" font-size="14" font-weight="600" text-anchor="middle">Pulse Cascade Splitter™</text><rect width="360" height="220" x="20" y="60" fill="rgba(10, 10, 21, 0.8)" stroke="rgba(139, 92, 246, 0.2)" rx="8"/><g transform="translate(40 80)"><text y="15" fill="rgba(255, 255, 255, 0.8)" font-family="Inter, sans-serif" font-size="12">Original Track</text><rect width="320" height="20" y="20" fill="rgba(139, 92, 246, 0.2)" stroke="rgba(139, 92, 246, 0.4)" rx="4"/><rect width="240" height="20" y="20" fill="url(#c)" rx="4"/><text y="60" fill="rgba(255, 255, 255, 0.8)" font-family="Inter, sans-serif" font-size="10">Vocals</text><rect width="260" height="12" x="60" y="50" fill="rgba(6, 182, 212, 0.3)" stroke="rgba(6, 182, 212, 0.5)" rx="2"/><text y="80" fill="rgba(255, 255, 255, 0.8)" font-family="Inter, sans-serif" font-size="10">Kick</text><rect width="260" height="12" x="60" y="70" fill="rgba(139, 92, 246, 0.3)" stroke="rgba(139, 92, 246, 0.5)" rx="2"/><text y="100" fill="rgba(255, 255, 255, 0.8)" font-family="Inter, sans-serif" font-size="10">Snare</text><rect width="260" height="12" x="60" y="90" fill="rgba(236, 72, 153, 0.3)" stroke="rgba(236, 72, 153, 0.5)" rx="2"/><text y="120" fill="rgba(255, 255, 255, 0.8)" font-family="Inter, sans-serif" font-size="10">Toms</text><rect width="260" height="12" x="60" y="110" fill="rgba(34, 197, 94, 0.3)" stroke="rgba(34, 197, 94, 0.5)" rx="2"/><text y="140" fill="rgba(255, 255, 255, 0.8)" font-family="Inter, sans-serif" font-size="10">Hats</text><rect width="260" height="12" x="60" y="130" fill="rgba(251, 191, 36, 0.3)" stroke="rgba(251, 191, 36, 0.5)" rx="2"/><text y="160" fill="rgba(255, 255, 255, 0.8)" font-family="Inter, sans-serif" font-size="10">Bass</text><rect width="260" height="12" x="60" y="150" fill="rgba(239, 68, 68, 0.3)" stroke="rgba(239, 68, 68, 0.5)" rx="2"/><text y="180" fill="rgba(255, 255, 255, 0.8)" font-family="Inter, sans-serif" font-size="10">Everything Else</text><rect width="260" height="12" x="60" y="170" fill="rgba(168, 85, 247, 0.3)" stroke="rgba(168, 85, 247, 0.5)" rx="2"/></g><g transform="translate(300 240)"><circle r="8" stroke="rgba(6, 182, 212, 0.8)" stroke-dasharray="12 4" stroke-width="2"><animateTransform attributeName="transform" dur="2s" repeatCount="indefinite" type="rotate" values="0;360"/></circle><text x="20" y="5" fill="rgba(6, 182, 212, 0.8)" font-family="Inter, sans-serif" font-size="10">Processing...</text></g><defs><linearGradient id="a" x1="0%" x2="100%" y1="0%" y2="100%"><stop offset="0%" style="stop-color:#1a1a2e;stop-opacity:1"/><stop offset="100%" style="stop-color:#0f0f1a;stop-opacity:1"/></linearGradient><linearGradient id="b" x1="0%" x2="100%" y1="0%" y2="0%"><stop offset="0%" style="stop-color:rgba(139,92,246,.2);stop-opacity:1"/><stop offset="50%" style="stop-color:rgba(6,182,212,.2);stop-opacity:1"/><stop offset="100%" style="stop-color:rgba(139,92,246,.2);stop-opacity:1"/></linearGradient><linearGradient id="c" x1="0%" x2="100%" y1="0%" y2="0%"><stop offset="0%" style="stop-color:rgba(139,92,246,.8);stop-opacity:1"/><stop offset="100%" style="stop-color:rgba(6,182,212,.8);stop-opacity:1"/></linearGradient></defs></svg>